<?xml version="1.0" encoding="UTF-8" standalone="no"?>
<svg
   viewBox="0 0 38.922406 55.317093"
   height="55.317093"
   width="38.922405"
   xml:space="preserve"
   id="svg29"
   version="1.1"
   sodipodi:docname="adult_selected.svg"
   inkscape:version="1.4 (e7c3feb100, 2024-10-09)"
   xmlns:inkscape="http://www.inkscape.org/namespaces/inkscape"
   xmlns:sodipodi="http://sodipodi.sourceforge.net/DTD/sodipodi-0.dtd"
   xmlns="http://www.w3.org/2000/svg"
   xmlns:svg="http://www.w3.org/2000/svg"
   xmlns:rdf="http://www.w3.org/1999/02/22-rdf-syntax-ns#"
   xmlns:cc="http://creativecommons.org/ns#"
   xmlns:dc="http://purl.org/dc/elements/1.1/"><sodipodi:namedview
     pagecolor="#ffffff"
     bordercolor="#666666"
     borderopacity="1"
     objecttolerance="10"
     gridtolerance="10"
     guidetolerance="10"
     inkscape:pageopacity="0"
     inkscape:pageshadow="2"
     inkscape:window-width="1920"
     inkscape:window-height="1016"
     id="namedview19"
     showgrid="false"
     inkscape:zoom="9.9787484"
     inkscape:cx="20.0927"
     inkscape:cy="26.205691"
     inkscape:window-x="0"
     inkscape:window-y="0"
     inkscape:window-maximized="1"
     inkscape:current-layer="g39"
     inkscape:showpageshadow="2"
     inkscape:pagecheckerboard="0"
     inkscape:deskcolor="#d1d1d1" /><metadata
     id="metadata35"><rdf:RDF><cc:Work
         rdf:about=""><dc:format>image/svg+xml</dc:format><dc:type
           rdf:resource="http://purl.org/dc/dcmitype/StillImage" /></cc:Work></rdf:RDF></metadata><defs
     id="defs33" /><g
     transform="matrix(0,-1.4244739,1.4508712,0,0.57723131,56.0272)"
     id="g37"><g
       transform="scale(0.1)"
       id="g39"><path
         id="path1"
         style="fill:#e9a835;fill-opacity:1;fill-rule:nonzero;stroke:#000000;stroke-width:24.652;stroke-dasharray:none"
         d="m 380.99118,135.39949 c 0.0401,-6.89268 -0.81847,-13.53908 -2.83822,-19.58683 -5.507,-16.496597 -23.2728,-26.716045 -36.4718,-37.208245 C 320.76493,61.978977 297.5287,51.250808 272.85092,45.192378 259.85496,27.587398 241.62697,14.639333 221.26938,9.3168422 c -6.899,-1.80078 -21.4127,4.3750648 -29.2597,4.3750648 -8.036,0 -8.26206,-6.4992348 -15.00006,-5.3039248 -27.0263,4.7928118 -45.83586,18.8561198 -57.34025,38.4063428 -22.41932,6.275138 -43.579208,16.554594 -62.769883,31.81009 -13.2032,10.4922 -30.950288,20.711648 -36.458088,37.208245 -8.0781,24.191 2.361345,57.98087 14.986345,78.68387 2.3945,3.93 5.234085,7.88207 9.405885,9.82707 4.9219,2.293 10.698284,1.3545 16.014684,2.4635 6.2734,1.313 14.95435,12.06354 20.86845,15.99254 8.7031,5.785 19.597997,9.91421 29.245997,13.82521 13.332,5.398 27.09761,9.38041 41.13361,11.99441 6.386,1.558 11.71361,2.4635 15.06861,2.4635 h 2.2075 c 5.602,0.52 11.2242,0.90193 16.8922,0.90193 3.82,0 8.26364,-0.2337 13.02564,-0.6327 4.762,0.399 9.20565,0.6327 13.02565,0.6327 5.668,0 11.2902,-0.38193 16.8922,-0.90193 h 0.4936 l 1.3437,-0.0942 0.76783,-0.0538 c 2.371,-0.183 5.31645,-0.65156 8.76145,-1.38656 16.086,-2.488 31.86185,-6.77127 47.05685,-12.92327 9.648,-3.911 20.52928,-8.04021 29.23228,-13.82521 5.914,-3.929 14.59545,-14.67954 20.86845,-15.99254 5.317,-1.109 11.1064,-0.1705 16.0284,-2.4635 4.176,-1.945 7.01189,-5.89707 9.40589,-9.82707 9.46875,-15.52725 17.70428,-38.41897 17.82456,-59.09704 z" /><path
         id="path41"
         style="fill:#e9a835;fill-opacity:1;fill-rule:nonzero;stroke:none"
         d="m 363.16,194.492 c -2.394,3.93 -5.226,7.891 -9.402,9.836 -4.922,2.293 -10.703,1.344 -16.02,2.453 -6.273,1.313 -14.961,12.071 -20.875,16 -8.703,5.785 -19.59,9.91 -29.238,13.821 -15.195,6.152 -30.969,10.437 -47.055,12.925 -3.445,0.735 -6.39,1.2 -8.761,1.383 l -0.766,0.059 -1.348,0.097 h -0.48 c -5.602,0.52 -11.227,0.903 -16.895,0.903 -3.82,0 -8.265,-0.242 -13.027,-0.641 -4.762,0.399 -9.207,0.641 -13.027,0.641 -5.668,0 -11.293,-0.383 -16.895,-0.903 h -2.207 c -3.355,0 -8.676,-0.914 -15.062,-2.472 -14.036,-2.614 -27.809,-6.594 -41.141,-11.992 -9.648,-3.911 -20.5352,-8.036 -29.2383,-13.821 -5.9141,-3.929 -14.6016,-14.687 -20.875,-16 -5.3164,-1.109 -11.0977,-0.16 -16.0196,-2.453 -4.1718,-1.945 -7.0078,-5.906 -9.4023,-9.836 C 22.8008,173.789 12.3594,140.004 20.4375,115.813 25.9453,99.3164 43.7031,89.0938 56.9063,78.6016 94.2813,48.8906 139.047,37.9648 186.266,38.9922 c 4.347,0.0937 8.687,0.2695 13.027,0.4844 4.34,-0.2149 8.684,-0.3907 13.027,-0.4844 47.219,-1.0274 91.985,9.8984 129.364,39.6094 13.199,10.4922 30.957,20.7148 36.464,37.2114 8.079,24.191 -2.363,57.976 -14.988,78.679"
         inkscape:connector-curvature="0" /><path
         id="path43"
         style="fill:#f6daa7;fill-opacity:1;fill-rule:nonzero;stroke:none"
         d="m 110.473,77.3594 h 167.48 l -7.754,69.3746 c 0,0 -64.07,75.403 -75.992,75.403 -11.91,0 -75.867,-75.196 -75.867,-75.196 l -7.867,-69.5816"
         inkscape:connector-curvature="0" /><path
         id="path45"
         style="fill:#f6daa7;fill-opacity:1;fill-rule:nonzero;stroke:none"
         d="m 275.52,52.1758 c -11.727,-19.668 -39.032,-37.1992 -72.879,-37.1992 -32.11,0 -64.227,15.9257 -75.25,27.9257 -28.2387,30.754 -17.25,91.7967 -0.672,125.1757 22.277,44.852 92.308,48.11 129.902,15.164 26.824,-23.512 43.672,-89.5232 18.899,-131.0662"
         inkscape:connector-curvature="0" /><path
         id="path47"
         style="fill:#d17d1a;fill-opacity:1;fill-rule:nonzero;stroke:none"
         d="m 177.004,8.38672 c 6.738,-1.19531 6.976,5.30078 15.012,5.30078 7.847,0 22.355,-6.16797 29.254,-4.36719 45.375,11.86329 80.273,61.48829 69.882,116.54669 -13.14,69.613 -7.593,21.363 -21.468,22.668 -1.688,20.117 -32.164,36.16 -69.61,36.16 -37.164,0 -67.457,-15.8 -69.566,-35.699 -12.172,4.867 -14.945,41.391 -23.379,-21.777 C 99.4922,70 119.91,18.5117 177.004,8.38672"
         inkscape:connector-curvature="0" /></g></g></svg>
