<?xml version="1.0" encoding="UTF-8" standalone="no"?>
<svg
   id="Layer_2"
   width="211.2496"
   height="341.7467"
   viewBox="0 0 211.24961 341.7467"
   version="1.1"
   sodipodi:docname="tiagopro.svg"
   inkscape:version="1.3.2 (091e20ef0f, 2023-11-25)"
   xmlns:inkscape="http://www.inkscape.org/namespaces/inkscape"
   xmlns:sodipodi="http://sodipodi.sourceforge.net/DTD/sodipodi-0.dtd"
   xmlns="http://www.w3.org/2000/svg"
   xmlns:svg="http://www.w3.org/2000/svg">
  <sodipodi:namedview
     id="namedview41"
     pagecolor="#ffffff"
     bordercolor="#000000"
     borderopacity="0.25"
     inkscape:showpageshadow="2"
     inkscape:pageopacity="0.0"
     inkscape:pagecheckerboard="0"
     inkscape:deskcolor="#d1d1d1"
     inkscape:zoom="4.6299948"
     inkscape:cx="88.661007"
     inkscape:cy="158.85547"
     inkscape:window-width="1920"
     inkscape:window-height="1043"
     inkscape:window-x="0"
     inkscape:window-y="0"
     inkscape:window-maximized="1"
     inkscape:current-layer="g40"
     showguides="true" />
  <defs
     id="defs1">
    <style
       id="style1">
      .cls-1 {
        fill: #f9df9d;
      }

      .cls-1, .cls-2, .cls-3, .cls-4, .cls-5 {
        stroke: #231f20;
        stroke-linejoin: round;
        stroke-width: .5px;
      }

      .cls-2 {
        fill: #e6e7e8;
      }

      .cls-2, .cls-3, .cls-4 {
        stroke-linecap: round;
      }

      .cls-3 {
        fill: #f1f2f2;
      }

      .cls-4 {
        fill: #d1d3d4;
      }

      .cls-5 {
        fill: none;
      }
    </style>
  </defs>
  <g
     inkscape:groupmode="layer"
     id="layer3"
     inkscape:label="Layer 1"
     transform="translate(6.2824248,6.295781)">
    <g
       id="g79"
       transform="translate(-65.36,65.38)"
       style="fill:#000000;stroke:none">
      <path
         id="path39"
         style="fill:#000000;stroke:none;stroke-width:0.5px;stroke-linecap:round;stroke-linejoin:round"
         class="cls-2"
         d="m 96.8125,-71.675781 c -2.016904,0.360062 -4.043964,0.716354 -6.099609,0.779297 -6.419744,0.318375 -13.043151,-0.260803 -19.226847,1.853662 -4.785517,1.551331 -8.969498,5.194206 -10.775106,9.933447 -2.981007,12.559247 -1.794041,25.983635 2.845718,37.991347 1.96526,4.975978 4.494995,9.79998 7.974229,13.8905736 2.056637,2.3172719 4.710798,3.9686215 7.036155,5.9798356 1.879898,1.98051046 2.886885,4.5830279 4.030707,7.0177031 3.308269,7.8258037 5.483255,16.1311567 9.562847,23.6251757 0.160714,0.443466 0.716466,0.949587 0.184243,1.343312 -3.885257,4.903434 -7.75266,9.925601 -10.311865,15.67708 -5.052317,10.87018 -6.662837,22.965198 -7.051375,34.840574 -0.363737,10.838932 0.144311,21.683854 -0.0543,32.524524 0.218845,11.1892 0.781461,22.5782 4.382665,33.26986 2.647048,7.89923 7.316057,15.25545 13.92441,20.41619 -3.671887,8.70116 -6.708093,17.707 -10.328514,26.3719 -0.561195,1.34598 -1.139421,2.68495 -1.737892,4.01482 -8.123631,5.05248 -13.886499,13.2415 -17.291016,22.06836 -3.919611,10.11991 -5.282428,21.15482 -4.412147,31.94832 0.410632,4.54961 2.507053,9.01937 6.131902,11.87832 3.997733,3.30673 9.232261,4.50697 14.263514,5.14135 5.10761,0.6048 10.266872,0.58657 15.376495,1.16347 31.790916,0.31869 63.414226,-3.76604 94.999596,-6.54447 5.22894,-0.4908 10.47364,-0.82554 15.70056,-1.32184 18.47396,-2.89351 36.74588,-6.92532 54.93227,-11.24367 1.43079,-0.68173 2.75668,-1.84187 3.24009,-3.39838 2.40219,-5.17112 5.47767,-10.23153 6.08413,-16.01764 0.29725,-2.19696 0.0408,-4.41324 -0.20313,-6.59687 -0.002,-85.07647 0.006,-170.153314 -0.0112,-255.229548 -0.62064,-6.231387 -1.99147,-12.675546 -5.81527,-17.786124 -2.70212,-3.569883 -6.99971,-5.948209 -11.50723,-6.04511 -2.00095,-0.251881 -3.93569,-0.877142 -5.91263,-1.270392 -21.81495,-5.007408 -43.82154,-9.845921 -66.24207,-10.963369 -5.49867,-0.26693 -10.9701,-0.905845 -16.4571,-1.336566 -22.36802,-1.929983 -44.77282,-3.69683 -67.232273,-3.975142 z" />
    </g>
  </g>
  <g
     id="Layer_1-2"
     data-name="Layer_1"
     transform="translate(-59.077575,71.675781)"
     style="display:inline">
    <g
       id="g41">
      <g
         id="g1">
        <path
           class="cls-2"
           d="M 92.38,-64.3 H 93 l 0.19,-0.05 c -0.9,0 -1.77,0.02 -2.58,0.05 h 1.78 z"
           id="path2"
           style="stroke-width:2;stroke-dasharray:none" />
        <path
           class="cls-3"
           d="m 168.72,251.24 c 30.22,-4.56 60.08,-9.98 66.42,-11.37 4.96,-1.09 10.51,-2.1 15.3,-2.89 l 0.36,-0.82 v -47.38 c 0,0 -2.46,-1.44 -10.92,-20.81 -8.46,-19.37 -7.83,-30.69 -7.83,-30.69 V 61.57 c 0,0 -0.63,-11.32 7.83,-30.69 8.46,-19.37 10.92,-20.81 10.92,-20.81 v -47.38 l -0.36,-0.82 c -4.78,-0.79 -10.34,-1.8 -15.3,-2.89 -6.33,-1.39 -36.2,-6.82 -66.42,-11.37 -1.42,0.62 -2.65,1.15 -3.3,1.42 -2.36,0.97 -10.98,7.56 -40.9,6.04 -29.92,-1.52 -35.27,2.33 -37.49,5.77 -2.23,3.44 0.41,7.94 -3.3,11.33 -1.95,1.78 -6.53,2.17 -10.44,2.15 2.75,6.52 7.24,12.5 14.67,16.79 15.57,8.99999998 50.14,12.01 67.89,14.19 17.76,2.18 29.38,3.83 28.61,13.01 -0.89,10.67 -10.3,11.71 -27.05,27.23 -16.75,15.52 -29.08,28.01 -31.87,43.23 -0.62,3.39 -0.93,7.01 -1.05,10.61 v 0 c 0,0 0,0.03 0,0.05 0,0.02 0,0.03 0,0.05 v 0 c 0.12,3.6 0.43,7.22 1.05,10.61 2.79,15.22 15.12,27.71 31.87,43.23 16.75,15.52 26.15,16.55 27.05,27.23 0.77,9.19 -10.85,10.83 -28.61,13.01 -17.76,2.18 -52.32,5.19 -67.89,14.19 -7.43,4.3 -11.92,10.27 -14.67,16.79 3.91,-0.02 8.49,0.37 10.44,2.15 3.71,3.39 1.07,7.89 3.3,11.33 2.23,3.44 7.57,7.29 37.49,5.77 29.92,-1.52 38.55,5.07 40.9,6.04 0.65,0.27 1.88,0.8 3.3,1.42 z m 2.35,-104.9 -7.62,-1.85 -7.21,-3.09 -6.8,-4.12 -5.77,-5.36 -5.15,-6.18 -3.71,-7 -2.68,-7.62 -1.24,-7.83 -0.2,-3.86 0.2,-3.86 1.24,-7.83 2.68,-7.62 3.71,-7 5.15,-6.18 5.77,-5.36 6.8,-4.12 7.21,-3.09 7.62,-1.85 7.21,-0.41 6.8,0.62 6.8,1.65 6.39,2.68 6.59,3.91 5.77,5.15 5.15,6.18 4.12,7.21 2.68,7.62 1.44,8.03 0.2,4.27 -0.2,4.27 -1.44,8.03 -2.68,7.62 -4.12,7.21 -5.15,6.18 -5.77,5.15 -6.59,3.91 -6.39,2.68 -6.8,1.65 -6.8,0.62 z"
           id="path26"
           style="stroke:none;stroke-width:2;stroke-dasharray:none" />
        <path
           id="path4"
           style="stroke:#141414;stroke-width:2;stroke-dasharray:none;stroke-opacity:1"
           class="cls-2"
           d="m 165.16023,-60.919066 3.56055,8.529297 c 30.21997,4.559995 60.07992,9.979142 66.41992,11.36914 4.95999,1.089999 10.50883,2.100626 15.29883,2.890625 6.05999,0.999999 10.8814,1.640625 11.6914,1.640625 0.67,0 1.04906,-0.24 1.28906,-0.5 l -0.0605,-0.121094 -1.65039,-2.058593 -1.84961,-2.271485 -0.20899,-0.208984 -0.33008,-0.160156 c -0.002,0.0023 -0.004,0.0035 -0.006,0.0059 l -0.0742,-0.03711 v -4.529297 l -0.6211,-0.208985 -1.84961,-0.410156 -1.65039,-0.410156 -1.83008,-0.339844 -2.75,-0.640625 -7.35937,-1.699219 -21.00977,-4.330078 -10.91992,-2.060547 -1.43945,-0.410156 -5.36133,-0.61914 -6.38867,-0.621094 -7.62109,-0.619141 -8.44922,-0.621094 -9.48047,-0.820312 z"
           sodipodi:nodetypes="ccccscccccccccccccccccccccccc" />
        <path
           id="path6"
           style="stroke:#f9df9d;stroke-width:2;stroke-dasharray:none;stroke-opacity:1"
           class="cls-1"
           d="m 96.279369,-65.130004 -0.208984,0.210938 h -0.410156 v 0.208984 h -0.210938 l -0.208984,0.210938 h -1.439453 l -0.601563,0.148437 c -0.0031,2.3e-5 -0.0067,-2.3e-5 -0.0098,0 l -0.189453,0.05078 h -2.390625 c -1.169998,0.04 -2.248518,0.06055 -3.228516,0.06055 l -3.640625,0.148438 -5.359375,0.410156 -2.681641,0.621094 -2.46875,0.820312 -2.470703,1.240235 -2.269531,2.058593 -1.439453,2.470703 -0.271485,1.09961 -0.548828,1.791015 -0.410156,2.679688 -0.210937,2.679687 0.210937,5.359375 0.619141,5.150391 1.03125,5.970703 1.648437,5.769531 2.060547,0.208985 h -0.740234 c 0.869998,0.05 1.841095,0.0818 2.871093,0.0918 -0.003,-0.007 -0.0049,-0.01444 -0.0078,-0.02148 3.907043,0.01904 8.479971,-0.372433 10.427734,-2.15039 v 0.01172 c 3.709994,-3.389992 1.068834,-7.890084 3.298828,-11.330078 2.229996,-3.439992 7.570299,-7.291482 37.490234,-5.771484 29.91994,1.519996 38.55041,-5.069065 40.90039,-6.039063 0.65,-0.269998 1.88079,-0.799923 3.30079,-1.419921 3.5834,-1.567119 8.38747,-3.714383 8.68359,-3.851563 0.005,9.38e-4 0.0102,0.001 0.0156,0.002 l 0.0391,-0.02148 c 0,0 -3.91884,-2.23844 -12.29883,-4.648438 l -2.95117,-0.291015 0.0508,0.05078 -0.25977,-0.05078 h -2.06054 l -1.6504,-0.208985 -9.88867,-0.820312 -10.30078,-1.03125 -10.29883,-0.619141 -10.71093,-0.61914 -4.5293,-0.210938 -8.45117,-0.208984 h -3.91016 l -2.468752,0.179687 v -0.179687 h -0.210937 v -0.210938 z m 17.617191,1.65625 c 1.71162,0.121803 3.44944,0.25238 5.2207,0.394531 -1.76928,-0.141757 -3.51126,-0.273135 -5.2207,-0.394531 z" />
        <path
           class="cls-2"
           d="M 93.95,-0.82000002 C 93.32,-1.08 92.72,-1.35 92.12,-1.62 l 0.22,0.19 c 0,0 0.61,0.23 1.61,0.60999998 z"
           id="path8"
           style="stroke-width:2;stroke-dasharray:none" />
        <path
           id="path10"
           style="stroke:#e6e7e8;stroke-width:2;stroke-dasharray:none;stroke-opacity:1"
           class="cls-2"
           d="m 69.099682,-25.770629 1.849609,4.53125 2.271485,4.330078 2.878906,4.119141 3.300781,3.4999999 0.279297,0.2109375 3.630859,2.6796875 3.859375,2.5097656 -0.560546,0.3789063 2.060546,4.9414062 11.740236,28.21875 0.28906,0.06055 v -0.0098 l 0.77149,2.84961 0.0195,0.08984 -0.79099,136.519767 -8.369139,31.13086 -0.220703,0.21094 c -1.579999,0.71999 -3.098752,1.46859 -4.46875,2.30859 -3.189997,1.95 -5.80094,3.65039 -7.960938,5.15039 l -0.279297,0.21094 -3.300781,3.5 -2.878906,4.11914 -2.271485,4.33008 -1.849609,4.52929 h 1.320312 c 0.87,-0.05 1.839142,-0.0798 2.869141,-0.0898 v -0.0195 c 2.749997,-6.52 7.239929,-12.49907 14.669922,-16.78906 15.569983,-9 50.140643,-12.01141 67.890623,-14.19141 17.75998,-2.18 29.37938,-3.82978 28.60938,-13.00977 -0.89,-10.66999 -10.29885,-11.71048 -27.04883,-27.23047 -16.74998,-15.51998 -29.0811,-28.00853 -31.87109,-43.22851 -0.62,-3.4 -0.93883,-7.05016 -1.04883,-10.660157 0.11,-3.609996 0.41883,-7.26016 1.04883,-10.660156 2.78999,-15.219985 15.12111,-27.710485 31.87109,-43.230469 16.74998,-15.519984 26.14883,-16.550479 27.04883,-27.230469 0.77,-9.189991 -10.8494,-10.829768 -28.60938,-13.0097658 C 138.0897,3.1196858 103.52904,0.11022148 87.959057,-8.8897695 80.529064,-13.189765 76.039132,-19.160792 73.289135,-25.680785 c -1.019999,0 -1.989142,-0.03984 -2.869141,-0.08984 z m 31.599608,194.919919 -0.28906,0.0606 -11.740236,28.2207 -2.060546,4.93946 0.560546,0.38086 -3.859375,2.50976 -3.630859,2.67969 c 2.159996,-1.5 4.770944,-3.20039 7.960938,-5.15039 1.369996,-0.84 2.888752,-1.59055 4.46875,-2.31055 v -0.01 l 0.220703,-0.18946 z"
           sodipodi:nodetypes="cccccccccccccccccccccccccccccccscccscccccccccccccccccc" />
        <path
           class="cls-2"
           d="M 92.38,263.15 H 93 l 0.19,0.05 c -0.9,0 -1.77,-0.02 -2.58,-0.05 h 1.57 c 0,0 0.21,0 0.21,0 z"
           id="path18"
           style="stroke-width:2;stroke-dasharray:none" />
        <path
           id="path20"
           style="stroke-width:2;stroke-dasharray:none"
           class="cls-2"
           d="m 262.13093,235.3407 c -0.81,0 -5.63141,0.63867 -11.6914,1.63867 -4.79,0.79 -10.33884,1.80063 -15.29883,2.89063 -6.34,1.38999 -36.19995,6.80914 -66.41992,11.36914 l -3.56055,8.53125 7.34961,-0.74024 9.48047,-0.82031 8.44922,-0.61914 7.62109,-0.62109 6.38867,-0.61915 5.36133,-0.62109 1.43945,-0.41016 10.91992,-2.05859 21.00977,-4.33008 7.35937,-1.70117 2.75,-0.63867 1.83008,-0.33984 1.65039,-0.41016 1.84961,-0.41016 0.6211,-0.21093 v -0.41016 -1.0293 -3.08984 l 0.0742,-0.0371 c 0.002,0.002 0.004,0.004 0.006,0.006 l 0.33008,-0.1582 0.20899,-0.21094 1.84961,-2.26953 1.65039,-2.06055 0.0605,-0.11914 c -0.24,-0.26 -0.61906,-0.5 -1.28906,-0.5 z"
           sodipodi:nodetypes="scccccccccccccccccccccccccccccs" />
        <path
           class="cls-3"
           d="m 262.13,235.34 c 0.67,0 1.05,0.24 1.29,0.5 l 0.15,-0.29 0.21,-0.41 v -6.18 h 0.21 V -30.1 h -0.21 v -6.18 l -0.21,-0.41 -0.15,-0.29 c -0.24,0.26 -0.62,0.5 -1.29,0.5 -0.81,0 -5.63,-0.64 -11.69,-1.64 l 0.36,0.82 v 47.38 c 0,0 -5.16,15.3 -2.94,23.12 2.22,7.82 8.82,18.17 12.83,21.37 l 0.4,3.44 v 0.06 c 0,0 0,41.3 0,41.3 v 41.47 c 0,0 -0.41,3.44 -0.41,3.44 -4.01,3.2 -10.62,13.55 -12.83,21.37 -2.22,7.82 2.94,23.12 2.94,23.12 v 47.38 l -0.36,0.82 c 6.06,-1 10.88,-1.64 11.69,-1.64 z"
           id="path21"
           style="stroke-width:2;stroke-dasharray:none" />
        <path
           class="cls-2"
           d="m 247.85,165.66 c 2.22,-7.82 8.82,-18.17 12.83,-21.37 l 0.4,-3.44 c -1.88,0.11 -6.98,0.11 -9.88,-2.95 V 60.96 c 2.9,-3.05 8,-3.06 9.88,-2.95 l -0.4,-3.44 c -4.01,-3.2 -10.62,-13.55 -12.83,-21.37 -2.22,-7.82 2.94,-23.12 2.94,-23.12 0,0 -2.46,1.44 -10.92,20.81 -8.46,19.37 -7.83,30.69 -7.83,30.69 v 75.71 c 0,0 -0.63,11.32 7.83,30.69 8.46,19.37 10.92,20.81 10.92,20.81 0,0 -5.16,-15.3 -2.94,-23.12 z"
           id="path22"
           style="stroke-width:2;stroke-dasharray:none" />
        <path
           class="cls-2"
           d="m 261.09,140.84 v -0.06 c 0,0 0,-41.3 0,-41.3 V 58.01 c -1.89,-0.11 -6.98,-0.11 -9.89,2.95 v 76.94 c 2.9,3.05 8,3.06 9.88,2.95 z"
           id="path24"
           style="stroke-width:2;stroke-dasharray:none" />
        <path
           id="path27"
           style="stroke:#f9df9d;stroke-width:2;stroke-dasharray:none;stroke-opacity:1"
           class="cls-1"
           d="m 73.310619,224.52039 c -1.029998,0.01 -2.001095,0.0398 -2.871093,0.0898 h 0.740234 l -2.060547,0.20898 -1.648437,5.77149 -1.03125,5.96875 -0.619141,5.15039 -0.210937,5.35937 0.210937,2.68165 0.410156,2.67968 0.548828,1.78907 0.271485,1.0996 1.439453,2.47071 2.269531,2.06054 2.470703,1.24024 2.46875,0.81836 2.681641,0.62109 5.359375,0.41016 3.640625,0.15039 c 0.979998,0 2.058518,0.0186 3.228516,0.0586 h 1.570312 0.820313 l 0.189453,0.0508 c -0.01224,-9e-5 -0.02684,10e-5 -0.03906,0 l 0.638672,0.16016 h 1.441406 l 0.208985,0.20898 h 0.210937 v 0.21094 h 0.410156 l 0.208985,0.20899 h 1.240234 v -0.20899 h 0.210938 v -0.17969 l 2.468751,0.17969 h 0.62109 3.29883 l 8.45117,-0.21094 4.5293,-0.20898 10.71093,-0.62109 10.29883,-0.61914 10.30078,-1.0293 9.88867,-0.82031 1.6504,-0.21094 h 1.8496 0.21094 l 0.25977,-0.0488 -0.0508,0.0488 2.95117,-0.28906 c 8.37999,-2.41 12.29883,-4.65039 12.29883,-4.65039 l -0.0391,-0.0195 c -0.28,-0.12998 -5.10923,-2.29132 -8.69921,-3.86132 -0.007,9.9e-4 -0.013,0.003 -0.0195,0.004 -1.40945,-0.61531 -2.63505,-1.14369 -3.28125,-1.41211 -2.34998,-0.97 -10.98045,-7.56101 -40.90039,-6.04101 -29.919929,1.52 -35.260232,-2.32955 -37.490228,-5.76953 -2.229994,-3.44 0.411166,-7.94008 -3.298828,-11.33008 v 0.01 c -1.948401,-1.77853 -6.523754,-2.1697 -10.43164,-2.15039 0.0041,-0.01 0.0076,-0.0196 0.01172,-0.0293 z m 48.117191,37.23242 c -3.27622,0.27465 -6.47849,0.51782 -9.55664,0.72461 3.07746,-0.20641 6.2804,-0.45022 9.55664,-0.72461 z" />
        <g
           id="g40"
           transform="rotate(90,164.8,99.43)"
           style="stroke-width:2;stroke-dasharray:none">
          <circle
             class="cls-2"
             cx="164.8"
             cy="86.769997"
             r="47.330002"
             id="circle38"
             style="fill:#afdce9;fill-opacity:1;stroke-width:4;stroke-dasharray:none" />
          <circle
             class="cls-3"
             cx="164.8"
             cy="86.150002"
             r="39.619999"
             id="circle39"
             style="stroke-width:4;stroke-dasharray:none" />
        </g>
        <path
           class="cls-4"
           d="m 150.19,178.28 c 8.15,-3.93 12.6,-11.09 13.89,-13.41 -16.66,-12.55 -29.86,-27.75 -35.52,-35.9 -7.7,-11.06 -8.57,-24.25 -8.59,-29.54 0.01,-5.29 0.89,-18.48 8.59,-29.54 5.66,-8.14 18.86,-23.34 35.52,-35.9 -1.28,-2.32 -5.74,-9.48 -13.89,-13.41 -1.98,-0.95 -4.43,-2.01 -7.12,-3.09 -7.36,1.5 -27.61,6.21 -41.58,15.15 -1.09,0.69 -2.14,1.41 -3.14,2.16 l -4.94,4.74 -1.48,1.75 c -0.49,0.65 -1,1.3 -1.45,1.99 l -0.19,0.31 -1.2,1.93 -1.85,3.3 -1.44,3.71 -1.65,5.15 -1.24,5.36 -0.82,5.36 -1.03,10.51 -0.21,10.51 v 20.09 l 0.21,10.51 1.03,10.51 0.82,5.36 1.24,5.36 1.65,5.15 1.44,3.71 1.85,3.3 1.2,1.93 0.19,0.31 c 0.45,0.69 0.96,1.34 1.45,1.99 l 1.48,1.75 4.94,4.74 c 1,0.75 2.05,1.46 3.14,2.16 13.97,8.93 34.22,13.65 41.58,15.15 2.68,-1.08 5.14,-2.14 7.12,-3.09 z"
           id="path25"
           style="stroke:none;stroke-width:2;stroke-dasharray:none" />
      </g>
    </g>
  </g>
</svg>
